<?xml version="1.0" encoding="UTF-8"?>
<svg xmlns="http://www.w3.org/2000/svg" xmlns:xlink="http://www.w3.org/1999/xlink" width="248px" height="60px" viewBox="0 0 195 60" version="1.1">
<defs>
<linearGradient id="linear0" gradientUnits="userSpaceOnUse" x1="0" y1="182.99" x2="368.38" y2="182.99" gradientTransform="matrix(0.163154,0,0,0.163908,0,0.0064082)">
<stop offset="0" style="stop-color:rgb(41.960784%,32.941176%,63.921569%);stop-opacity:1;"/>
<stop offset="1" style="stop-color:rgb(18.431373%,29.411765%,62.352941%);stop-opacity:1;"/>
</linearGradient>
<linearGradient id="linear1" gradientUnits="userSpaceOnUse" x1="470.84" y1="182.36" x2="1195.19" y2="182.36" gradientTransform="matrix(0.163154,0,0,0.163908,0,0.0064082)">
<stop offset="0" style="stop-color:rgb(41.960784%,32.941176%,63.921569%);stop-opacity:1;"/>
<stop offset="1" style="stop-color:rgb(18.431373%,29.411765%,62.352941%);stop-opacity:1;"/>
</linearGradient>
</defs>
<g id="surface1">
<path style=" stroke:none;fill-rule:nonzero;fill:url(#linear0);" d="M 31.109375 26.378906 C 32.789062 26.90625 33.90625 28.503906 33.828125 30.269531 C 33.746094 32.039062 32.492188 33.527344 30.773438 33.902344 C 29.050781 34.277344 27.296875 33.4375 26.5 31.859375 C 25.699219 30.28125 26.0625 28.363281 27.375 27.1875 L 27.472656 27.101562 C 28.480469 26.25 29.851562 25.976562 31.109375 26.378906 Z M 39.082031 12.820312 C 39.203125 12.921875 39.355469 12.96875 39.511719 12.953125 C 39.667969 12.941406 39.8125 12.867188 39.910156 12.746094 C 41.105469 11.304688 40.914062 9.164062 39.484375 7.964844 L 33.835938 3.210938 C 32.40625 2.007812 30.273438 2.199219 29.078125 3.636719 C 28.976562 3.753906 28.929688 3.910156 28.941406 4.066406 C 28.957031 4.222656 29.03125 4.367188 29.152344 4.464844 Z M 51.511719 16.371094 L 49.417969 29.207031 C 49.394531 29.363281 49.429688 29.523438 49.523438 29.648438 C 49.613281 29.777344 49.753906 29.859375 49.90625 29.886719 C 51.75 30.1875 53.484375 28.933594 53.789062 27.085938 L 54.980469 19.785156 C 55.28125 17.933594 54.035156 16.1875 52.191406 15.886719 C 52.035156 15.859375 51.878906 15.894531 51.75 15.988281 C 51.625 16.078125 51.539062 16.21875 51.511719 16.371094 Z M 7.570312 17.738281 L 19.78125 13.40625 C 20.085938 13.296875 20.246094 12.960938 20.136719 12.652344 C 19.515625 10.886719 17.585938 9.957031 15.824219 10.582031 L 8.882812 13.042969 C 8.035156 13.34375 7.34375 13.96875 6.957031 14.78125 C 6.570312 15.597656 6.523438 16.53125 6.824219 17.378906 C 6.933594 17.6875 7.265625 17.847656 7.570312 17.738281 Z M 16.746094 50.996094 C 16.132812 52.953125 14.328125 54.28125 12.285156 54.285156 C 10.003906 54.28125 8.058594 52.625 7.683594 50.363281 C 7.304688 48.105469 8.609375 45.902344 10.769531 45.15625 L 12.289062 33.445312 L 12.875 28.910156 C 12.902344 28.730469 13.007812 28.578125 13.164062 28.492188 L 19.855469 24.984375 C 19.984375 24.917969 20.132812 24.90625 20.269531 24.949219 L 25.644531 26.644531 C 24.792969 27.71875 24.371094 29.074219 24.460938 30.441406 L 20.648438 29.242188 C 20.511719 29.195312 20.359375 29.210938 20.234375 29.277344 L 16.824219 31.0625 C 16.667969 31.148438 16.558594 31.300781 16.539062 31.476562 L 14.703125 45.574219 C 16.546875 46.695312 17.390625 48.933594 16.746094 50.996094 Z M 13.203125 46.664062 C 11.59375 46.152344 9.878906 47.050781 9.375 48.667969 C 8.867188 50.285156 9.761719 52.007812 11.371094 52.515625 C 12.980469 53.023438 14.695312 52.125 15.199219 50.511719 C 15.707031 48.894531 14.8125 47.171875 13.203125 46.664062 Z M 5.441406 27.738281 C 5.183594 27.78125 4.921875 27.800781 4.664062 27.800781 C 2.5625 27.789062 0.730469 26.375 0.183594 24.339844 C -0.367188 22.304688 0.503906 20.152344 2.3125 19.078125 C 4.117188 18.003906 6.414062 18.273438 7.925781 19.734375 L 19.011719 15.800781 L 23.304688 14.277344 C 23.46875 14.222656 23.652344 14.246094 23.792969 14.347656 L 29.933594 18.757812 C 30.054688 18.839844 30.132812 18.96875 30.15625 19.113281 L 31.078125 24.6875 C 29.835938 24.417969 28.539062 24.59375 27.410156 25.1875 C 27.332031 25.226562 27.253906 25.269531 27.179688 25.3125 L 26.527344 21.394531 C 26.503906 21.25 26.421875 21.121094 26.304688 21.039062 L 23.175781 18.792969 C 23.035156 18.6875 22.847656 18.660156 22.679688 18.722656 L 9.332031 23.457031 C 9.167969 25.613281 7.5625 27.378906 5.441406 27.738281 Z M 5.171875 26.132812 C 6.835938 25.855469 7.964844 24.277344 7.6875 22.605469 C 7.410156 20.933594 5.835938 19.800781 4.171875 20.078125 C 2.507812 20.355469 1.382812 21.9375 1.660156 23.609375 C 1.9375 25.28125 3.511719 26.410156 5.171875 26.132812 Z M 52.699219 41.765625 L 40.644531 46.492188 C 40.34375 46.613281 40.199219 46.953125 40.316406 47.253906 C 40.996094 48.996094 42.949219 49.855469 44.6875 49.179688 L 51.546875 46.488281 C 53.28125 45.808594 54.140625 43.84375 53.464844 42.097656 C 53.410156 41.949219 53.296875 41.832031 53.152344 41.769531 C 53.007812 41.707031 52.84375 41.703125 52.699219 41.765625 Z M 31.5625 55.734375 L 21.375 47.703125 C 21.117188 47.507812 20.757812 47.554688 20.558594 47.804688 C 19.40625 49.28125 19.664062 51.414062 21.136719 52.570312 L 26.921875 57.136719 C 28.390625 58.292969 30.511719 58.03125 31.664062 56.554688 C 31.859375 56.300781 31.8125 55.933594 31.5625 55.734375 Z M 8.832031 44.5625 L 10.511719 31.667969 C 10.546875 31.347656 10.320312 31.054688 10.003906 31.011719 C 8.152344 30.769531 6.457031 32.078125 6.214844 33.933594 L 5.261719 41.273438 C 5.019531 43.132812 6.324219 44.835938 8.175781 45.082031 C 8.328125 45.101562 8.488281 45.058594 8.609375 44.960938 C 8.734375 44.863281 8.8125 44.71875 8.832031 44.5625 Z M 56.34375 40.90625 C 54.894531 41.199219 53.390625 40.78125 52.296875 39.777344 L 41.335938 44.074219 L 37.09375 45.734375 C 36.925781 45.800781 36.742188 45.78125 36.59375 45.679688 L 30.3125 41.476562 C 30.195312 41.394531 30.109375 41.269531 30.082031 41.128906 L 28.964844 35.515625 C 30.167969 35.746094 31.410156 35.558594 32.492188 34.984375 C 32.617188 34.917969 32.738281 34.847656 32.855469 34.773438 L 33.644531 38.730469 C 33.671875 38.871094 33.753906 38.996094 33.875 39.078125 L 37.074219 41.21875 C 37.222656 41.320312 37.410156 41.339844 37.574219 41.273438 L 50.761719 36.105469 C 50.863281 33.660156 52.816406 31.703125 55.25 31.609375 C 57.6875 31.519531 59.785156 33.320312 60.070312 35.75 C 60.355469 38.179688 58.734375 40.425781 56.34375 40.90625 Z M 58.421875 35.699219 C 58.09375 34.035156 56.488281 32.957031 54.832031 33.289062 C 53.175781 33.617188 52.101562 35.234375 52.433594 36.898438 C 52.765625 38.5625 54.375 39.636719 56.027344 39.304688 C 57.679688 38.972656 58.75 37.359375 58.421875 35.699219 Z M 41.105469 52.164062 C 42.578125 53.808594 42.707031 56.261719 41.417969 58.054688 C 40.125 59.847656 37.765625 60.492188 35.75 59.601562 C 33.734375 58.710938 32.609375 56.527344 33.054688 54.359375 L 23.792969 47.074219 L 20.203125 44.253906 C 20.0625 44.144531 19.988281 43.972656 19.996094 43.792969 L 20.402344 36.230469 C 20.410156 36.085938 20.476562 35.949219 20.585938 35.851562 L 24.808594 32.039062 C 25.289062 33.324219 26.230469 34.382812 27.445312 35.007812 L 24.453125 37.707031 C 24.34375 37.800781 24.28125 37.9375 24.273438 38.082031 L 24.070312 41.941406 C 24.058594 42.117188 24.136719 42.289062 24.277344 42.402344 L 35.417969 51.167969 C 37.316406 50.144531 39.664062 50.558594 41.105469 52.164062 Z M 39.902344 53.25 C 38.773438 51.992188 36.84375 51.886719 35.585938 53.019531 C 34.332031 54.152344 34.230469 56.09375 35.359375 57.351562 C 36.484375 58.613281 38.417969 58.714844 39.671875 57.585938 C 40.925781 56.453125 41.027344 54.511719 39.902344 53.25 Z M 39.621094 31.285156 L 43.085938 29.613281 C 43.246094 29.535156 43.359375 29.382812 43.386719 29.207031 L 45.671875 15.175781 C 43.828125 13.980469 43.0625 11.660156 43.824219 9.597656 C 44.585938 7.53125 46.671875 6.273438 48.84375 6.574219 C 51.015625 6.871094 52.691406 8.648438 52.871094 10.839844 C 53.050781 13.035156 51.691406 15.0625 49.597656 15.71875 L 47.699219 27.378906 L 46.964844 31.890625 C 46.933594 32.066406 46.824219 32.21875 46.660156 32.296875 L 39.859375 35.585938 C 39.730469 35.648438 39.582031 35.65625 39.445312 35.605469 L 34.089844 33.722656 C 34.589844 33.148438 34.96875 32.472656 35.195312 31.742188 C 35.371094 31.171875 35.457031 30.578125 35.445312 29.984375 L 39.199219 31.304688 C 39.335938 31.355469 39.488281 31.347656 39.621094 31.285156 Z M 47.210938 14.128906 C 48.804688 14.6875 50.542969 13.847656 51.101562 12.25 C 51.65625 10.648438 50.820312 8.902344 49.230469 8.339844 C 47.636719 7.78125 45.894531 8.625 45.339844 10.222656 C 44.78125 11.820312 45.621094 13.570312 47.210938 14.128906 Z M 19.757812 8 C 18.238281 6.464844 17.964844 4.085938 19.09375 2.242188 C 20.21875 0.398438 22.457031 -0.433594 24.507812 0.230469 C 26.558594 0.890625 27.890625 2.875 27.734375 5.035156 C 27.71875 5.289062 27.679688 5.542969 27.617188 5.789062 L 36.636719 13.375 L 40.136719 16.308594 C 40.273438 16.421875 40.34375 16.597656 40.328125 16.777344 L 39.675781 24.332031 C 39.664062 24.476562 39.597656 24.609375 39.484375 24.703125 L 35.167969 28.351562 C 34.738281 27.046875 33.84375 25.953125 32.65625 25.273438 L 35.679688 22.71875 C 35.789062 22.625 35.859375 22.492188 35.871094 22.347656 L 36.199219 18.5 C 36.210938 18.320312 36.140625 18.144531 36.003906 18.03125 L 25.152344 8.90625 C 23.347656 9.804688 21.171875 9.441406 19.757812 8 Z M 20.90625 6.855469 C 22.058594 8.019531 23.921875 8.070312 25.128906 6.964844 C 26.339844 5.863281 26.472656 3.996094 25.429688 2.734375 C 24.386719 1.46875 22.539062 1.253906 21.234375 2.242188 C 20.53125 2.777344 20.089844 3.59375 20.027344 4.476562 C 19.964844 5.363281 20.285156 6.230469 20.90625 6.863281 Z M 20.90625 6.855469 "/>
<path style=" stroke:none;fill-rule:nonzero;fill:url(#linear1);" d="M 85.238281 35.636719 L 84.410156 32.910156 L 80.253906 32.910156 L 79.425781 35.636719 L 76.816406 35.636719 L 80.839844 24.132812 L 83.796875 24.132812 L 87.835938 35.636719 Z M 83.832031 30.875 C 83.070312 28.402344 82.640625 27.003906 82.542969 26.679688 C 82.441406 26.355469 82.371094 26.097656 82.335938 25.914062 C 82.164062 26.582031 81.671875 28.234375 80.867188 30.875 Z M 101.757812 24.179688 L 101.757812 31.59375 C 101.773438 32.375 101.578125 33.144531 101.191406 33.820312 C 100.808594 34.464844 100.238281 34.972656 99.5625 35.285156 C 98.765625 35.644531 97.902344 35.816406 97.03125 35.796875 C 95.566406 35.796875 94.425781 35.417969 93.617188 34.664062 C 92.804688 33.90625 92.398438 32.875 92.398438 31.5625 L 92.398438 24.1875 L 94.808594 24.1875 L 94.808594 31.203125 C 94.808594 32.082031 94.988281 32.730469 95.339844 33.144531 C 95.695312 33.558594 96.28125 33.765625 97.097656 33.761719 C 97.886719 33.761719 98.460938 33.554688 98.816406 33.140625 C 99.171875 32.726562 99.351562 32.074219 99.351562 31.183594 L 99.351562 24.1875 Z M 112.148438 35.636719 L 109.726562 35.636719 L 109.726562 26.203125 L 106.628906 26.203125 L 106.628906 24.179688 L 115.242188 24.179688 L 115.242188 26.203125 L 112.140625 26.203125 Z M 130.546875 29.902344 C 130.546875 31.796875 130.078125 33.253906 129.144531 34.273438 C 128.207031 35.292969 126.863281 35.804688 125.117188 35.804688 C 123.371094 35.804688 122.027344 35.292969 121.089844 34.273438 C 120.15625 33.253906 119.6875 31.792969 119.6875 29.886719 C 119.6875 27.980469 120.15625 26.523438 121.097656 25.515625 C 122.035156 24.511719 123.382812 24.003906 125.140625 24 C 126.894531 24 128.234375 24.507812 129.160156 25.519531 C 130.085938 26.535156 130.550781 27.992188 130.546875 29.894531 Z M 122.226562 29.902344 C 122.226562 31.183594 122.46875 32.144531 122.953125 32.792969 C 123.433594 33.441406 124.15625 33.765625 125.121094 33.765625 C 127.050781 33.765625 128.015625 32.476562 128.015625 29.902344 C 128.015625 27.324219 127.058594 26.03125 125.140625 26.023438 C 124.175781 26.023438 123.453125 26.347656 122.960938 26.996094 C 122.472656 27.648438 122.226562 28.613281 122.222656 29.894531 Z M 146.226562 35.636719 L 143.152344 35.636719 L 138.191406 26.96875 L 138.121094 26.96875 C 138.21875 28.5 138.269531 29.59375 138.269531 30.246094 L 138.269531 35.640625 L 136.105469 35.640625 L 136.105469 24.179688 L 139.15625 24.179688 L 144.113281 32.761719 L 144.167969 32.761719 C 144.085938 31.273438 144.046875 30.222656 144.046875 29.601562 L 144.046875 24.179688 L 146.226562 24.179688 Z M 162.648438 29.902344 C 162.648438 31.796875 162.179688 33.253906 161.242188 34.273438 C 160.308594 35.292969 158.964844 35.804688 157.21875 35.804688 C 155.46875 35.804688 154.128906 35.292969 153.195312 34.273438 C 152.257812 33.253906 151.789062 31.792969 151.789062 29.886719 C 151.789062 27.980469 152.257812 26.523438 153.195312 25.515625 C 154.136719 24.511719 155.480469 24.007812 157.234375 24.007812 C 158.988281 24.007812 160.328125 24.515625 161.257812 25.527344 C 162.183594 26.542969 162.648438 27.996094 162.644531 29.894531 Z M 154.328125 29.902344 C 154.328125 31.183594 154.570312 32.144531 155.054688 32.792969 C 155.539062 33.441406 156.261719 33.765625 157.222656 33.765625 C 159.152344 33.765625 160.117188 32.476562 160.117188 29.902344 C 160.117188 27.324219 159.15625 26.03125 157.230469 26.023438 C 156.269531 26.023438 155.542969 26.347656 155.054688 26.996094 C 154.5625 27.648438 154.320312 28.613281 154.320312 29.894531 Z M 173.042969 35.636719 L 170.292969 26.648438 L 170.222656 26.648438 C 170.324219 28.476562 170.371094 29.699219 170.371094 30.308594 L 170.371094 35.636719 L 168.210938 35.636719 L 168.210938 24.179688 L 171.503906 24.179688 L 174.203125 32.941406 L 174.25 32.941406 L 177.113281 24.179688 L 180.40625 24.179688 L 180.40625 35.636719 L 178.152344 35.636719 L 178.152344 30.214844 C 178.152344 29.960938 178.152344 29.664062 178.164062 29.328125 C 178.175781 28.996094 178.203125 28.105469 178.265625 26.664062 L 178.195312 26.664062 L 175.261719 35.636719 Z M 190.023438 28.898438 L 192.402344 24.179688 L 195.011719 24.179688 L 191.214844 31.179688 L 191.214844 35.636719 L 188.8125 35.636719 L 188.8125 31.257812 L 185.03125 24.179688 L 187.652344 24.179688 Z M 190.023438 28.898438 "/>
</g>
</svg>
