<svg xmlns="http://www.w3.org/2000/svg" xmlns:xlink="http://www.w3.org/1999/xlink" viewBox="0 0 1195.19 365.98"><defs><style>.cls-1{fill:url(#linear-gradient);}.cls-2{fill:url(#linear-gradient-2);}</style><linearGradient id="linear-gradient" y1="182.99" x2="368.38" y2="182.99" gradientUnits="userSpaceOnUse"><stop offset="0" stop-color="#6b54a3"/><stop offset="1" stop-color="#2f4b9f"/></linearGradient><linearGradient id="linear-gradient-2" x1="470.84" y1="182.36" x2="1195.19" y2="182.36" xlink:href="#linear-gradient"/></defs><title>Auto Logo_Color</title><g id="Layer_2" data-name="Layer 2"><g id="Layer_1-2" data-name="Layer 1"><path class="cls-1" d="M190.67,160.89a23.76,23.76,0,1,1-22.88,4.94l.59-.52a23.6,23.6,0,0,1,22.29-4.42Zm48.88-82.72a3.59,3.59,0,0,0,5.07-.45h0A20.71,20.71,0,0,0,242,48.55l-34.61-29a20.71,20.71,0,0,0-29.17,2.59,3.59,3.59,0,0,0,.45,5.07Zm76.18,21.68-12.84,78.31a3.6,3.6,0,0,0,3,4.13,20.71,20.71,0,0,0,23.79-17.08l7.3-44.54a20.71,20.71,0,0,0-17.09-23.79A3.6,3.6,0,0,0,315.73,99.85ZM46.41,108.18l74.83-26.43a3.6,3.6,0,0,0,2.19-4.59h0A20.71,20.71,0,0,0,97,64.53l-42.56,15A20.71,20.71,0,0,0,41.82,106,3.6,3.6,0,0,0,46.41,108.18Zm56.23,202.91A28.69,28.69,0,0,1,75.3,331.15,28.63,28.63,0,0,1,66,275.45L75.31,204l3.61-27.67a3.39,3.39,0,0,1,1.77-2.53l41-21.4a3.33,3.33,0,0,1,2.55-.22l32.94,10.35a33.65,33.65,0,0,0-7.26,23.16l-23.36-7.33a3.33,3.33,0,0,0-2.55.22l-20.89,10.9a3.36,3.36,0,0,0-1.76,2.53L90.13,278A28.68,28.68,0,0,1,102.64,311.09ZM80.93,284.65a18.72,18.72,0,1,0,12.24,23.47A18.73,18.73,0,0,0,80.93,284.65ZM33.34,169.19a29.48,29.48,0,0,1-4.76.39,28.61,28.61,0,1,1,20-49.22l67.95-24,26.31-9.29a3.35,3.35,0,0,1,3,.43l37.64,26.9a3.34,3.34,0,0,1,1.36,2.17l5.65,34A33.45,33.45,0,0,0,168,153.62q-.72.38-1.41.78l-4-23.92a3.31,3.31,0,0,0-1.36-2.17l-19.17-13.7a3.29,3.29,0,0,0-3.05-.43L57.2,143.06A28.7,28.7,0,0,1,33.34,169.19Zm-1.63-9.79A18.72,18.72,0,1,0,10.18,144,18.72,18.72,0,0,0,31.71,159.4ZM323,254.76,249.11,283.6a3.6,3.6,0,0,0-2,4.66A20.71,20.71,0,0,0,273.89,300l42.05-16.41A20.7,20.7,0,0,0,327.7,256.8,3.59,3.59,0,0,0,323,254.76ZM193.46,340,131,291a3.6,3.6,0,0,0-5,.62,20.7,20.7,0,0,0,3.54,29.07L165,348.55A20.71,20.71,0,0,0,194.07,345,3.59,3.59,0,0,0,193.46,340ZM54.14,271.84l10.28-78.68a3.61,3.61,0,0,0-3.11-4h0A20.7,20.7,0,0,0,38.1,207l-5.85,44.76A20.72,20.72,0,0,0,50.1,275,3.62,3.62,0,0,0,54.14,271.84Zm291.21-22.32a28.49,28.49,0,0,1-24.82-6.88l-67.18,26.21-26,10.14a3.35,3.35,0,0,1-3.07-.33L185.8,253a3.3,3.3,0,0,1-1.42-2.12l-6.85-34.23a33.06,33.06,0,0,0,21.63-3.26c.76-.4,1.5-.83,2.22-1.28l4.83,24.14a3.33,3.33,0,0,0,1.42,2.12l19.61,13.07a3.35,3.35,0,0,0,3.07.34l80.81-31.54a28.64,28.64,0,1,1,34.23,29.28Zm12.74-31.76a18.72,18.72,0,1,0-14.68,22A18.73,18.73,0,0,0,358.09,217.76ZM251.94,318.21a28.64,28.64,0,1,1-49.35,13.4l-56.75-44.45-22-17.2a3.33,3.33,0,0,1-1.28-2.81L125.06,221a3.35,3.35,0,0,1,1.11-2.31l25.88-23.25a33.67,33.67,0,0,0,16.17,18.11L149.88,230a3.35,3.35,0,0,0-1.11,2.31l-1.25,23.53a3.35,3.35,0,0,0,1.27,2.81l68.3,53.48A28.68,28.68,0,0,1,251.94,318.21Zm-7.38,6.63a18.72,18.72,0,1,0-1.41,26.44A18.72,18.72,0,0,0,244.56,324.84Zm-1.72-134,21.24-10.22a3.31,3.31,0,0,0,1.84-2.47l14-85.6A28.67,28.67,0,1,1,304,95.85L292.35,167l-4.5,27.53A3.34,3.34,0,0,1,286,197l-41.69,20.06a3.37,3.37,0,0,1-2.55.14l-32.82-11.49a33.65,33.65,0,0,0,6.78-12.1h0a33.73,33.73,0,0,0,1.54-10.72l23,8.07A3.36,3.36,0,0,0,242.84,190.82ZM289.37,86.17a18.71,18.71,0,1,0-11.48-23.85A18.72,18.72,0,0,0,289.37,86.17ZM121.09,48.78A28.64,28.64,0,1,1,170,30.68a28.2,28.2,0,0,1-.72,4.61l55.27,46.26L246,99.46a3.34,3.34,0,0,1,1.19,2.85l-4,46.09a3.32,3.32,0,0,1-1.18,2.27l-26.46,22.26a33.76,33.76,0,0,0-15.4-18.77l18.54-15.59a3.35,3.35,0,0,0,1.17-2.27l2-23.48a3.34,3.34,0,0,0-1.19-2.85L154.16,54.29a28.64,28.64,0,0,1-33.07-5.51Zm7.06-7a18.73,18.73,0,1,0,2-28.14A18.78,18.78,0,0,0,128.15,41.83Z"/><path class="cls-2" d="M522.43,217.39l-5.07-16.64H491.88l-5.07,16.64h-16l24.67-70.2h18.12l24.77,70.2Zm-8.6-29.07q-7-22.62-7.92-25.59t-1.26-4.68q-1.59,6.12-9,30.27Zm109.86-40.84v45.24a26.1,26.1,0,0,1-3.46,13.58,22.63,22.63,0,0,1-10,8.94,35.9,35.9,0,0,1-15.5,3.11q-13.49,0-20.94-6.91t-7.46-18.92v-45h14.78v42.8q0,8.07,3.25,11.86t10.76,3.77q7.26,0,10.54-3.8t3.28-11.93v-42.7Zm63.68,69.91H672.54V159.82h-19V147.48h52.79v12.34h-19Zm112.78-35q0,17.35-8.61,26.68t-24.67,9.33q-16.07,0-24.68-9.33t-8.6-26.78q0-17.44,8.63-26.65T767,146.38q16.13,0,24.65,9.28T800.15,182.34Zm-51,0q0,11.72,4.44,17.64t13.3,5.93q17.73,0,17.74-23.57T767,158.72q-8.84,0-13.34,5.95T749.13,182.34Zm147.11,35H877.4L847,164.5h-.43q.91,14,.91,20v32.9H834.22V147.48h18.7l30.37,52.36h.33q-.72-13.62-.72-19.27V147.48h13.34Zm100.64-35q0,17.35-8.61,26.68t-24.67,9.33q-16.07,0-24.67-9.33t-8.61-26.78q0-17.44,8.63-26.65t24.75-9.21q16.11,0,24.65,9.28T996.88,182.34Zm-51,0q0,11.72,4.45,17.64t13.29,5.93q17.74,0,17.74-23.57T963.7,158.72q-8.85,0-13.35,5.95T945.86,182.34Zm114.7,35-16.84-54.85h-.43q.92,16.74.91,22.33v32.52H1031V147.48h20.18l16.54,53.46h.29l17.55-53.46h20.18v69.91h-13.82V184.3c0-1.56,0-3.36.07-5.4s.26-7.46.64-16.26h-.43l-18,54.75Zm104.08-41.12,14.58-28.79h16L1172,190.18v27.21h-14.73V190.66l-23.19-43.18h16.07Z"/></g></g></svg>